<!DOCTYPE svg PUBLIC "-//W3C//DTD SVG 1.1//EN" "http://www.w3.org/Graphics/SVG/1.1/DTD/svg11.dtd">
<!-- Uploaded to: SVG Repo, www.svgrepo.com, Transformed by: SVG Repo Mixer Tools -->
<svg width="800px" height="800px" viewBox="0 -0.5 25 25" fill="none" xmlns="http://www.w3.org/2000/svg">
<g id="SVGRepo_bgCarrier" stroke-width="0"/>
<g id="SVGRepo_tracerCarrier" stroke-linecap="round" stroke-linejoin="round"/>
<g id="SVGRepo_iconCarrier"> <path fill-rule="evenodd" clip-rule="evenodd" d="M15.1921 5H9.80807C8.65914 5.00635 7.5598 5.46885 6.75189 6.28576C5.94398 7.10268 5.49368 8.20708 5.50007 9.356V14.644C5.49368 15.7929 5.94398 16.8973 6.75189 17.7142C7.5598 18.5311 8.65914 18.9937 9.80807 19H15.1921C16.341 18.9937 17.4403 18.5311 18.2482 17.7142C19.0562 16.8973 19.5064 15.7929 19.5001 14.644V9.356C19.5064 8.20708 19.0562 7.10268 18.2482 6.28576C17.4403 5.46885 16.341 5.00635 15.1921 5Z" stroke="#46d33c" stroke-width="1.5" stroke-linecap="round" stroke-linejoin="round"/> <path d="M13.1841 10.5291H16.5301V13.8641" stroke="#46d33c" stroke-width="1.5" stroke-linecap="round" stroke-linejoin="round"/> <path d="M16.5301 10.5291L12.3301 14.8491C11.9623 15.2167 11.374 15.241 10.9771 14.9051L10.0771 14.1401C9.86727 13.9618 9.59323 13.8779 9.31957 13.9082C9.04591 13.9384 8.79684 14.0802 8.63108 14.3001C8.59208 14.3521 8.55408 14.4051 8.51008 14.4531L6.18408 17.0001" stroke="#46d33c" stroke-width="1.5" stroke-linecap="round" stroke-linejoin="round"/> </g>
</svg>